<svg xmlns="http://www.w3.org/2000/svg" viewBox="0 0 533.5 544.3" width="16" height="16">
  <path fill="#4285f4" d="M533.5 278.4c0-17.4-1.6-34.1-4.7-50.3H272v95h147.3c-6.3 33.8-25 62.5-53.2 81.6v67h85.9c50.4-46.5 81.5-115 81.5-193.3z"></path>
  <path fill="#34a853" d="M272 544.3c72.6 0 133.4-24.2 177.9-65.5l-85.9-67c-23.9 16-54.5 25.5-92 25.5-70.8 0-130.7-47.9-152.2-112.1h-89.8v70.4c44.7 89.6 137.1 149.7 241.9 149.7z"></path>
  <path fill="#fbbc04" d="M119.8 325.2c-10.7-31.8-10.7-66.5 0-98.3v-70.4h-89.8c-39.2 76.4-39.2 162.8 0 239.2l89.8-70.5z"></path>
  <path fill="#ea4335" d="M272 107.6c38.9-.6 76.2 13.6 104.5 39.7l78.2-78.2C404.3 23.1 339.9-.1 272 0c-104.8 0-197.2 60.1-241.9 149.7l89.8 70.4c21.4-64.2 81.4-112.1 152.1-112.5z"></path>
</svg>
